<?xml version="1.0" encoding="UTF-8" standalone="no"?>
<!-- Created with Inkscape (http://www.inkscape.org/) -->

<svg
   xmlns:dc="http://purl.org/dc/elements/1.1/"
   xmlns:cc="http://creativecommons.org/ns#"
   xmlns:rdf="http://www.w3.org/1999/02/22-rdf-syntax-ns#"
   xmlns:svg="http://www.w3.org/2000/svg"
   xmlns="http://www.w3.org/2000/svg"
   xmlns:sodipodi="http://sodipodi.sourceforge.net/DTD/sodipodi-0.dtd"
   xmlns:inkscape="http://www.inkscape.org/namespaces/inkscape"
   width="180.38075mm"
   height="181.11111mm"
   viewBox="0 0 639.1444 641.73229"
   id="svg2"
   version="1.1"
   inkscape:version="0.91 r13725"
   sodipodi:docname="pokeball-icon.svg">
  <defs
     id="defs4" />
  <sodipodi:namedview
     id="base"
     pagecolor="#ffffff"
     bordercolor="#666666"
     borderopacity="1.0"
     inkscape:pageopacity="0.0"
     inkscape:pageshadow="2"
     inkscape:zoom="0.98994949"
     inkscape:cx="130.53035"
     inkscape:cy="286.10458"
     inkscape:document-units="px"
     inkscape:current-layer="layer1"
     showgrid="false"
     inkscape:window-width="1535"
     inkscape:window-height="876"
     inkscape:window-x="65"
     inkscape:window-y="24"
     inkscape:window-maximized="1"
     fit-margin-top="20"
     fit-margin-left="20"
     fit-margin-right="20"
     fit-margin-bottom="20" />
  <metadata
     id="metadata7">
    <rdf:RDF>
      <cc:Work
         rdf:about="">
        <dc:format>image/svg+xml</dc:format>
        <dc:type
           rdf:resource="http://purl.org/dc/dcmitype/StillImage" />
        <dc:title></dc:title>
      </cc:Work>
    </rdf:RDF>
  </metadata>
  <g
     inkscape:label="Layer 1"
     inkscape:groupmode="layer"
     id="layer1"
     transform="translate(-12.264717,43.784111)">
    <g
       id="g4217"
       style="fill:#dfdbd2;fill-opacity:1">
      <path
         id="path4194"
         d="M 331.83594,27.082031 A 250,250 0 0 0 83.382812,251.82812 l 159.552738,0 a 92.5,92.5 0 0 1 88.90039,-67.24609 92.5,92.5 0 0 1 88.95898,67.24609 l 159.74805,0 A 250,250 0 0 0 331.83594,27.082031 Z M 83.130859,302.33594 A 250,250 0 0 0 331.83594,527.08203 250,250 0 0 0 580.29102,302.33594 l -159.55469,0 a 92.5,92.5 0 0 1 -88.90039,67.24609 92.5,92.5 0 0 1 -88.95899,-67.24609 l -159.746091,0 z"
         style="fill:#dfdbd2;fill-opacity:1;stroke:none;stroke-width:3.5999999;stroke-linecap:square;stroke-linejoin:round;stroke-miterlimit:4;stroke-dasharray:none;stroke-opacity:1"
         inkscape:connector-curvature="0" />
      <circle
         r="48"
         cy="277.08203"
         cx="331.83624"
         id="path4196-1"
         style="fill:#dfdbd2;fill-opacity:1;stroke:none;stroke-width:3.5999999;stroke-linecap:square;stroke-linejoin:round;stroke-miterlimit:4;stroke-dasharray:none;stroke-opacity:1" />
    </g>
  </g>
</svg>
